<svg width="20" height="20" viewBox="0 0 20 20" fill="none" xmlns="http://www.w3.org/2000/svg">
<path fill-rule="evenodd" clip-rule="evenodd" d="M10.6666 1C10.6666 0.447715 10.2189 0 9.6666 0C9.11432 0 8.6666 0.447715 8.6666 1V9.16699H1C0.447715 9.16699 0 9.61471 0 10.167C0 10.7193 0.447715 11.167 1 11.167H8.6666V19C8.6666 19.5523 9.11432 20 9.6666 20C10.2189 20 10.6666 19.5523 10.6666 19V11.167H19C19.5523 11.167 20 10.7193 20 10.167C20 9.61471 19.5523 9.16699 19 9.16699H10.6666V1Z" fill="black"/>
</svg>
