<svg width="22" height="21" viewBox="0 0 22 21" fill="none" xmlns="http://www.w3.org/2000/svg">
<path fill-rule="evenodd" clip-rule="evenodd" d="M16.9742 1.8H5.97423C4.20692 1.8 2.77423 3.23269 2.77423 5V16C2.77423 17.7673 4.20692 19.2 5.97423 19.2H16.9742C18.7415 19.2 20.1742 17.7673 20.1742 16V5C20.1742 3.23269 18.7415 1.8 16.9742 1.8ZM5.97423 0C3.2128 0 0.974228 2.23858 0.974228 5V16C0.974228 18.7614 3.2128 21 5.97423 21H16.9742C19.7357 21 21.9742 18.7614 21.9742 16V5C21.9742 2.23858 19.7357 0 16.9742 0H5.97423Z" fill="black"/>
<path fill-rule="evenodd" clip-rule="evenodd" d="M20.9742 7.00001H1.97423V5.20001H20.9742V7.00001Z" fill="black"/>
<path fill-rule="evenodd" clip-rule="evenodd" d="M8.97423 6.00001L4.97423 1.00001L6.54771 0.125854L10.5477 5.12585L8.97423 6.00001Z" fill="black"/>
<path fill-rule="evenodd" clip-rule="evenodd" d="M15.4742 6.00001L11.4742 1.00001L13.0477 0.125854L17.0477 5.12585L15.4742 6.00001Z" fill="black"/>
<path d="M14.7242 12.067C15.0576 12.2594 15.0576 12.7406 14.7242 12.933L9.47423 15.9641C9.14089 16.1566 8.72423 15.916 8.72423 15.5311L8.72423 9.46892C8.72423 9.08402 9.14089 8.84345 9.47423 9.0359L14.7242 12.067Z" fill="black"/>
</svg>
