<svg width="20" height="22" viewBox="0 0 20 22" fill="none" xmlns="http://www.w3.org/2000/svg">
<path fill-rule="evenodd" clip-rule="evenodd" d="M15.5749 6.94191H4.4535C3.81982 6.94191 3.29536 7.43461 3.25583 8.06705L2.78265 15.638C2.63153 18.056 4.55182 20.1 6.97447 20.1H13.0539C15.4766 20.1 17.3969 18.056 17.2457 15.638L16.7726 8.06705C16.733 7.43461 16.2086 6.94191 15.5749 6.94191ZM4.4535 5.14191C2.86931 5.14191 1.55816 6.37367 1.45934 7.95477L0.986152 15.5257C0.770265 18.9799 3.51354 21.9 6.97447 21.9H13.0539C16.5148 21.9 19.2581 18.9799 19.0422 15.5257L18.569 7.95477C18.4702 6.37367 17.1591 5.14191 15.5749 5.14191H4.4535Z" fill="black"/>
<path fill-rule="evenodd" clip-rule="evenodd" d="M10.2503 1.8C9.0554 1.8 8.08673 2.76867 8.08673 3.96359V5.1419H6.28673V3.96359C6.28673 1.77456 8.06129 0 10.2503 0C12.4393 0 14.2139 1.77456 14.2139 3.96359V5.1419H12.4139V3.96359C12.4139 2.76867 11.4452 1.8 10.2503 1.8Z" fill="black"/>
<path fill-rule="evenodd" clip-rule="evenodd" d="M10.2499 11.3117C11.4448 11.3117 12.4135 10.3431 12.4135 9.14814L12.4135 8.91247C12.4135 8.41542 12.8164 8.01247 13.3135 8.01247C13.8105 8.01247 14.2135 8.41542 14.2135 8.91247L14.2135 9.14814C14.2135 11.3372 12.4389 13.1117 10.2499 13.1117C8.06086 13.1117 6.2863 11.3372 6.2863 9.14814L6.2863 8.91247C6.2863 8.41542 6.68925 8.01247 7.1863 8.01247C7.68336 8.01247 8.0863 8.41542 8.0863 8.91247L8.0863 9.14814C8.0863 10.3431 9.05498 11.3117 10.2499 11.3117Z" fill="black"/>
</svg>
