<svg width="23" height="23" viewBox="0 0 23 23" fill="none" xmlns="http://www.w3.org/2000/svg">
<path fill-rule="evenodd" clip-rule="evenodd" d="M21.6236 21.6543C21.817 21.4622 21.8176 21.1494 21.6248 20.9566L17.2594 16.5913C18.7457 14.9327 19.6562 12.7525 19.6562 10.3508C19.6562 5.18819 15.468 1 10.3054 1C5.14273 1 0.954544 5.18819 0.954544 10.3508C0.954544 15.5135 5.14273 19.7017 10.3054 19.7017C12.7169 19.7017 14.902 18.7813 16.5606 17.2852L20.9284 21.653C21.1202 21.8449 21.4311 21.8454 21.6236 21.6543ZM1.93884 10.3508C1.93884 5.7394 5.69394 1.9843 10.3054 1.9843C14.9168 1.9843 18.6719 5.7394 18.6719 10.3508C18.6719 14.9623 14.9168 18.7174 10.3054 18.7174C5.69394 18.7174 1.93884 14.9623 1.93884 10.3508Z" fill="#262626" stroke="#262626" stroke-linecap="round" stroke-linejoin="round"/>
</svg>
